<?xml version="1.0" encoding="UTF-8"?>
<svg xmlns="http://www.w3.org/2000/svg" width="960" height="616" viewBox="0 0 960 616">
  <defs>
    <marker id="arrow-E60C7F" markerWidth="10" markerHeight="7" refX="9" refY="3.5" orient="auto">
      <polygon points="0 0, 10 3.5, 0 7" fill="#E60C7F" />
    </marker>
    <style>text { font-family: "Segoe UI", system-ui, -apple-system, sans-serif; }</style>
  </defs>
  <rect width="100%" height="100%" fill="#ffffff" />
  <text x="200" y="62" font-size="22" fill="#E60C7F" opacity="1"><tspan x="200" dy="0">omnigent on Databricks: integration architecture</tspan></text>
  <rect x="340" y="256" width="280" height="120" rx="8" stroke="#F53B9D" fill="#F53B9D" stroke-width="1" opacity="1" />
  <text x="390" y="296" font-size="18" fill="#f8f9fa" opacity="1"><tspan x="390" dy="0">omnigent server</tspan></text>
  <text x="390" y="322" font-size="12" fill="#f8f9fa" opacity="1"><tspan x="390" dy="0">agents, harnesses,</tspan></text>
  <text x="390" y="342" font-size="12" fill="#f8f9fa" opacity="1"><tspan x="390" dy="0">tools, OTel emission,</tspan></text>
  <text x="390" y="362" font-size="12" fill="#f8f9fa" opacity="1"><tspan x="390" dy="0">OpenAI-compat LLM calls</tspan></text>
  <rect x="340" y="116" width="280" height="80" rx="8" stroke="#4DC5A0" fill="#4DC5A0" stroke-width="1" opacity="1" />
  <text x="390" y="146" font-size="16" fill="#212529" opacity="1"><tspan x="390" dy="0">Databricks Apps</tspan></text>
  <text x="390" y="165" font-size="11" fill="#212529" opacity="1"><tspan x="390" dy="0">managed runtime + workspace SSO</tspan></text>
  <text x="390" y="183" font-size="11" fill="#212529" opacity="1"><tspan x="390" dy="0">Lakebase Postgres + UC Volumes</tspan></text>
  <path d="M 480 196 L 480 256" stroke="#E60C7F" fill="none" stroke-width="2" opacity="1" marker-end="url(#arrow-E60C7F)" />
  <text x="500" y="227" font-size="11" fill="#E60C7F" opacity="1"><tspan x="500" dy="0">runs in</tspan></text>
  <rect x="680" y="256" width="240" height="120" rx="8" stroke="#4DC5A0" fill="#4DC5A0" stroke-width="1" opacity="1" />
  <text x="700" y="286" font-size="16" fill="#212529" opacity="1"><tspan x="700" dy="0">Mosaic AI Gateway</tspan></text>
  <text x="700" y="311" font-size="11" fill="#212529" opacity="1"><tspan x="700" dy="0">cost tracking,</tspan></text>
  <text x="700" y="329" font-size="11" fill="#212529" opacity="1"><tspan x="700" dy="0">PII guardrails,</tspan></text>
  <text x="700" y="347" font-size="11" fill="#212529" opacity="1"><tspan x="700" dy="0">audit logs,</tspan></text>
  <text x="700" y="365" font-size="11" fill="#212529" opacity="1"><tspan x="700" dy="0">rate limits per key</tspan></text>
  <path d="M 620 316 L 680 316" stroke="#E60C7F" fill="none" stroke-width="2" opacity="1" marker-end="url(#arrow-E60C7F)" />
  <text x="630" y="307" font-size="11" fill="#E60C7F" opacity="1"><tspan x="630" dy="0">LLM calls</tspan></text>
  <rect x="680" y="416" width="240" height="80" rx="8" stroke="#4DC5A0" fill="#4DC5A0" stroke-width="1" opacity="1" />
  <text x="700" y="444" font-size="14" fill="#212529" opacity="1"><tspan x="700" dy="0">Mosaic AI Foundation Models</tspan></text>
  <text x="700" y="465" font-size="11" fill="#212529" opacity="1"><tspan x="700" dy="0">Claude Sonnet 4, Llama 3.1,</tspan></text>
  <text x="700" y="483" font-size="11" fill="#212529" opacity="1"><tspan x="700" dy="0">GPT-OSS, Mistral, others</tspan></text>
  <path d="M 800 376 L 800 416" stroke="#E60C7F" fill="none" stroke-width="2" opacity="1" marker-end="url(#arrow-E60C7F)" />
  <rect x="680" y="516" width="240" height="60" rx="8" stroke="#4DC5A0" fill="#4DC5A0" stroke-width="1" opacity="1" />
  <text x="700" y="544" font-size="14" fill="#212529" opacity="1"><tspan x="700" dy="0">External providers</tspan></text>
  <text x="700" y="565" font-size="11" fill="#212529" opacity="1"><tspan x="700" dy="0">OpenAI, Anthropic, custom</tspan></text>
  <path d="M 800 496 L 800 516" stroke="#E60C7F" fill="none" stroke-width="2" opacity="1" marker-end="url(#arrow-E60C7F)" />
  <rect x="340" y="436" width="280" height="80" rx="8" stroke="#4DC5A0" fill="#4DC5A0" stroke-width="1" opacity="1" />
  <text x="360" y="466" font-size="16" fill="#212529" opacity="1"><tspan x="360" dy="0">MLflow Tracing in Unity Catalog</tspan></text>
  <text x="360" y="485" font-size="11" fill="#212529" opacity="1"><tspan x="360" dy="0">OTel spans -&gt; UC governed traces</tspan></text>
  <text x="360" y="503" font-size="11" fill="#212529" opacity="1"><tspan x="360" dy="0">search, retention, RBAC, audit</tspan></text>
  <path d="M 480 376 L 480 436" stroke="#E60C7F" fill="none" stroke-width="2" opacity="1" marker-end="url(#arrow-E60C7F)" />
  <text x="500" y="407" font-size="11" fill="#E60C7F" opacity="1"><tspan x="500" dy="0">OTel /v1/traces</tspan></text>
  <rect x="40" y="256" width="240" height="120" rx="8" stroke="#F53B9D" fill="#F53B9D" stroke-width="1" opacity="1" />
  <text x="60" y="286" font-size="16" fill="#f8f9fa" opacity="1"><tspan x="60" dy="0">Your agent spec</tspan></text>
  <text x="60" y="311" font-size="11" fill="#f8f9fa" opacity="1"><tspan x="60" dy="0">agent.yaml:</tspan></text>
  <text x="60" y="329" font-size="11" fill="#f8f9fa" opacity="1"><tspan x="60" dy="0">  model: databricks-claude-...</tspan></text>
  <text x="60" y="347" font-size="11" fill="#f8f9fa" opacity="1"><tspan x="60" dy="0">  executor: openai-agents-sdk</tspan></text>
  <text x="60" y="365" font-size="11" fill="#f8f9fa" opacity="1"><tspan x="60" dy="0">  tools: [calculator, web]</tspan></text>
  <path d="M 280 316 L 340 316" stroke="#E60C7F" fill="none" stroke-width="2" opacity="1" marker-end="url(#arrow-E60C7F)" />
  <text x="290" y="307" font-size="11" fill="#E60C7F" opacity="1"><tspan x="290" dy="0">omni run</tspan></text>
</svg>